%TF.GenerationSoftware,KiCad,Pcbnew,10.0.0*%
%TF.CreationDate,2026-04-20T17:44:02-07:00*%
%TF.ProjectId,Breadboard Business Card,42726561-6462-46f6-9172-642042757369,rev?*%
%TF.SameCoordinates,Original*%
%TF.FileFunction,Legend,Top*%
%TF.FilePolarity,Positive*%
%FSLAX46Y46*%
G04 Gerber Fmt 4.6, Leading zero omitted, Abs format (unit mm)*
G04 Created by KiCad (PCBNEW 10.0.0) date 2026-04-20 17:44:02*
%MOMM*%
%LPD*%
G01*
G04 APERTURE LIST*
%ADD10C,0.250000*%
%ADD11C,1.000000*%
%ADD12C,0.150000*%
%ADD13C,0.120000*%
G04 APERTURE END LIST*
D10*
X144878758Y-94181047D02*
X146069234Y-96681047D01*
X146069234Y-96681047D02*
X147021615Y-94895333D01*
X147021615Y-94895333D02*
X147973996Y-96681047D01*
X147973996Y-96681047D02*
X149164473Y-94181047D01*
X151069235Y-96681047D02*
X151069235Y-94181047D01*
X153212092Y-96681047D02*
X153212092Y-95371523D01*
X153212092Y-95371523D02*
X152973997Y-95133428D01*
X152973997Y-95133428D02*
X152497806Y-95014380D01*
X152497806Y-95014380D02*
X151783520Y-95014380D01*
X151783520Y-95014380D02*
X151307330Y-95133428D01*
X151307330Y-95133428D02*
X151069235Y-95252476D01*
X157735902Y-96681047D02*
X157735902Y-95371523D01*
X157735902Y-95371523D02*
X157497807Y-95133428D01*
X157497807Y-95133428D02*
X157021616Y-95014380D01*
X157021616Y-95014380D02*
X156069235Y-95014380D01*
X156069235Y-95014380D02*
X155593045Y-95133428D01*
X157735902Y-96562000D02*
X157259711Y-96681047D01*
X157259711Y-96681047D02*
X156069235Y-96681047D01*
X156069235Y-96681047D02*
X155593045Y-96562000D01*
X155593045Y-96562000D02*
X155354949Y-96323904D01*
X155354949Y-96323904D02*
X155354949Y-96085809D01*
X155354949Y-96085809D02*
X155593045Y-95847714D01*
X155593045Y-95847714D02*
X156069235Y-95728666D01*
X156069235Y-95728666D02*
X157259711Y-95728666D01*
X157259711Y-95728666D02*
X157735902Y-95609619D01*
X159402569Y-95014380D02*
X161307331Y-95014380D01*
X160116855Y-94181047D02*
X160116855Y-96323904D01*
X160116855Y-96323904D02*
X160354950Y-96562000D01*
X160354950Y-96562000D02*
X160831140Y-96681047D01*
X160831140Y-96681047D02*
X161307331Y-96681047D01*
X164878760Y-96562000D02*
X164402569Y-96681047D01*
X164402569Y-96681047D02*
X163450188Y-96681047D01*
X163450188Y-96681047D02*
X162973998Y-96562000D01*
X162973998Y-96562000D02*
X162735902Y-96323904D01*
X162735902Y-96323904D02*
X162735902Y-95371523D01*
X162735902Y-95371523D02*
X162973998Y-95133428D01*
X162973998Y-95133428D02*
X163450188Y-95014380D01*
X163450188Y-95014380D02*
X164402569Y-95014380D01*
X164402569Y-95014380D02*
X164878760Y-95133428D01*
X164878760Y-95133428D02*
X165116855Y-95371523D01*
X165116855Y-95371523D02*
X165116855Y-95609619D01*
X165116855Y-95609619D02*
X162735902Y-95847714D01*
X166783521Y-95014380D02*
X167973997Y-96681047D01*
X167973997Y-96681047D02*
X169164474Y-95014380D01*
X172973998Y-96562000D02*
X172497807Y-96681047D01*
X172497807Y-96681047D02*
X171545426Y-96681047D01*
X171545426Y-96681047D02*
X171069236Y-96562000D01*
X171069236Y-96562000D02*
X170831140Y-96323904D01*
X170831140Y-96323904D02*
X170831140Y-95371523D01*
X170831140Y-95371523D02*
X171069236Y-95133428D01*
X171069236Y-95133428D02*
X171545426Y-95014380D01*
X171545426Y-95014380D02*
X172497807Y-95014380D01*
X172497807Y-95014380D02*
X172973998Y-95133428D01*
X172973998Y-95133428D02*
X173212093Y-95371523D01*
X173212093Y-95371523D02*
X173212093Y-95609619D01*
X173212093Y-95609619D02*
X170831140Y-95847714D01*
X175354950Y-96681047D02*
X175354950Y-95014380D01*
X175354950Y-95490571D02*
X175593045Y-95252476D01*
X175593045Y-95252476D02*
X175831140Y-95133428D01*
X175831140Y-95133428D02*
X176307331Y-95014380D01*
X176307331Y-95014380D02*
X176783521Y-95014380D01*
X184164474Y-96562000D02*
X183688283Y-96681047D01*
X183688283Y-96681047D02*
X182735902Y-96681047D01*
X182735902Y-96681047D02*
X182259712Y-96562000D01*
X182259712Y-96562000D02*
X182021616Y-96323904D01*
X182021616Y-96323904D02*
X182021616Y-95371523D01*
X182021616Y-95371523D02*
X182259712Y-95133428D01*
X182259712Y-95133428D02*
X182735902Y-95014380D01*
X182735902Y-95014380D02*
X183688283Y-95014380D01*
X183688283Y-95014380D02*
X184164474Y-95133428D01*
X184164474Y-95133428D02*
X184402569Y-95371523D01*
X184402569Y-95371523D02*
X184402569Y-95609619D01*
X184402569Y-95609619D02*
X182021616Y-95847714D01*
X187259711Y-96681047D02*
X186783521Y-96562000D01*
X186783521Y-96562000D02*
X186545426Y-96323904D01*
X186545426Y-96323904D02*
X186545426Y-94181047D01*
X188926378Y-96562000D02*
X189402569Y-96681047D01*
X189402569Y-96681047D02*
X190354950Y-96681047D01*
X190354950Y-96681047D02*
X190831140Y-96562000D01*
X190831140Y-96562000D02*
X191069236Y-96323904D01*
X191069236Y-96323904D02*
X191069236Y-96204857D01*
X191069236Y-96204857D02*
X190831140Y-95966761D01*
X190831140Y-95966761D02*
X190354950Y-95847714D01*
X190354950Y-95847714D02*
X189640664Y-95847714D01*
X189640664Y-95847714D02*
X189164474Y-95728666D01*
X189164474Y-95728666D02*
X188926378Y-95490571D01*
X188926378Y-95490571D02*
X188926378Y-95371523D01*
X188926378Y-95371523D02*
X189164474Y-95133428D01*
X189164474Y-95133428D02*
X189640664Y-95014380D01*
X189640664Y-95014380D02*
X190354950Y-95014380D01*
X190354950Y-95014380D02*
X190831140Y-95133428D01*
X195116855Y-96562000D02*
X194640664Y-96681047D01*
X194640664Y-96681047D02*
X193688283Y-96681047D01*
X193688283Y-96681047D02*
X193212093Y-96562000D01*
X193212093Y-96562000D02*
X192973997Y-96323904D01*
X192973997Y-96323904D02*
X192973997Y-95371523D01*
X192973997Y-95371523D02*
X193212093Y-95133428D01*
X193212093Y-95133428D02*
X193688283Y-95014380D01*
X193688283Y-95014380D02*
X194640664Y-95014380D01*
X194640664Y-95014380D02*
X195116855Y-95133428D01*
X195116855Y-95133428D02*
X195354950Y-95371523D01*
X195354950Y-95371523D02*
X195354950Y-95609619D01*
X195354950Y-95609619D02*
X192973997Y-95847714D01*
D11*
X152038846Y-90336095D02*
X152038846Y-85336095D01*
X152038846Y-85336095D02*
X157753132Y-90336095D01*
X157753132Y-90336095D02*
X157753132Y-85336095D01*
X162038845Y-88907523D02*
X166800750Y-88907523D01*
X161086464Y-90336095D02*
X164419798Y-85336095D01*
X164419798Y-85336095D02*
X167753131Y-90336095D01*
X171086465Y-90336095D02*
X171086465Y-85336095D01*
X171086465Y-85336095D02*
X174419798Y-88907523D01*
X174419798Y-88907523D02*
X177753132Y-85336095D01*
X177753132Y-85336095D02*
X177753132Y-90336095D01*
X182515036Y-87717047D02*
X185848369Y-87717047D01*
X187276941Y-90336095D02*
X182515036Y-90336095D01*
X182515036Y-90336095D02*
X182515036Y-85336095D01*
X182515036Y-85336095D02*
X187276941Y-85336095D01*
D12*
X208666666Y-66454819D02*
X208666666Y-67169104D01*
X208666666Y-67169104D02*
X208619047Y-67311961D01*
X208619047Y-67311961D02*
X208523809Y-67407200D01*
X208523809Y-67407200D02*
X208380952Y-67454819D01*
X208380952Y-67454819D02*
X208285714Y-67454819D01*
X209047619Y-66454819D02*
X209714285Y-66454819D01*
X209714285Y-66454819D02*
X209285714Y-67454819D01*
X207666666Y-111454819D02*
X207666666Y-112169104D01*
X207666666Y-112169104D02*
X207619047Y-112311961D01*
X207619047Y-112311961D02*
X207523809Y-112407200D01*
X207523809Y-112407200D02*
X207380952Y-112454819D01*
X207380952Y-112454819D02*
X207285714Y-112454819D01*
X208666666Y-112454819D02*
X208095238Y-112454819D01*
X208380952Y-112454819D02*
X208380952Y-111454819D01*
X208380952Y-111454819D02*
X208285714Y-111597676D01*
X208285714Y-111597676D02*
X208190476Y-111692914D01*
X208190476Y-111692914D02*
X208095238Y-111740533D01*
X168913095Y-65884819D02*
X168913095Y-66694342D01*
X168913095Y-66694342D02*
X168960714Y-66789580D01*
X168960714Y-66789580D02*
X169008333Y-66837200D01*
X169008333Y-66837200D02*
X169103571Y-66884819D01*
X169103571Y-66884819D02*
X169294047Y-66884819D01*
X169294047Y-66884819D02*
X169389285Y-66837200D01*
X169389285Y-66837200D02*
X169436904Y-66789580D01*
X169436904Y-66789580D02*
X169484523Y-66694342D01*
X169484523Y-66694342D02*
X169484523Y-65884819D01*
X169913095Y-65980057D02*
X169960714Y-65932438D01*
X169960714Y-65932438D02*
X170055952Y-65884819D01*
X170055952Y-65884819D02*
X170294047Y-65884819D01*
X170294047Y-65884819D02*
X170389285Y-65932438D01*
X170389285Y-65932438D02*
X170436904Y-65980057D01*
X170436904Y-65980057D02*
X170484523Y-66075295D01*
X170484523Y-66075295D02*
X170484523Y-66170533D01*
X170484523Y-66170533D02*
X170436904Y-66313390D01*
X170436904Y-66313390D02*
X169865476Y-66884819D01*
X169865476Y-66884819D02*
X170484523Y-66884819D01*
X129666666Y-66454819D02*
X129666666Y-67169104D01*
X129666666Y-67169104D02*
X129619047Y-67311961D01*
X129619047Y-67311961D02*
X129523809Y-67407200D01*
X129523809Y-67407200D02*
X129380952Y-67454819D01*
X129380952Y-67454819D02*
X129285714Y-67454819D01*
X130571428Y-66454819D02*
X130380952Y-66454819D01*
X130380952Y-66454819D02*
X130285714Y-66502438D01*
X130285714Y-66502438D02*
X130238095Y-66550057D01*
X130238095Y-66550057D02*
X130142857Y-66692914D01*
X130142857Y-66692914D02*
X130095238Y-66883390D01*
X130095238Y-66883390D02*
X130095238Y-67264342D01*
X130095238Y-67264342D02*
X130142857Y-67359580D01*
X130142857Y-67359580D02*
X130190476Y-67407200D01*
X130190476Y-67407200D02*
X130285714Y-67454819D01*
X130285714Y-67454819D02*
X130476190Y-67454819D01*
X130476190Y-67454819D02*
X130571428Y-67407200D01*
X130571428Y-67407200D02*
X130619047Y-67359580D01*
X130619047Y-67359580D02*
X130666666Y-67264342D01*
X130666666Y-67264342D02*
X130666666Y-67026247D01*
X130666666Y-67026247D02*
X130619047Y-66931009D01*
X130619047Y-66931009D02*
X130571428Y-66883390D01*
X130571428Y-66883390D02*
X130476190Y-66835771D01*
X130476190Y-66835771D02*
X130285714Y-66835771D01*
X130285714Y-66835771D02*
X130190476Y-66883390D01*
X130190476Y-66883390D02*
X130142857Y-66931009D01*
X130142857Y-66931009D02*
X130095238Y-67026247D01*
X207666666Y-81454819D02*
X207666666Y-82169104D01*
X207666666Y-82169104D02*
X207619047Y-82311961D01*
X207619047Y-82311961D02*
X207523809Y-82407200D01*
X207523809Y-82407200D02*
X207380952Y-82454819D01*
X207380952Y-82454819D02*
X207285714Y-82454819D01*
X208571428Y-81788152D02*
X208571428Y-82454819D01*
X208333333Y-81407200D02*
X208095238Y-82121485D01*
X208095238Y-82121485D02*
X208714285Y-82121485D01*
X207666666Y-96454819D02*
X207666666Y-97169104D01*
X207666666Y-97169104D02*
X207619047Y-97311961D01*
X207619047Y-97311961D02*
X207523809Y-97407200D01*
X207523809Y-97407200D02*
X207380952Y-97454819D01*
X207380952Y-97454819D02*
X207285714Y-97454819D01*
X208047619Y-96454819D02*
X208666666Y-96454819D01*
X208666666Y-96454819D02*
X208333333Y-96835771D01*
X208333333Y-96835771D02*
X208476190Y-96835771D01*
X208476190Y-96835771D02*
X208571428Y-96883390D01*
X208571428Y-96883390D02*
X208619047Y-96931009D01*
X208619047Y-96931009D02*
X208666666Y-97026247D01*
X208666666Y-97026247D02*
X208666666Y-97264342D01*
X208666666Y-97264342D02*
X208619047Y-97359580D01*
X208619047Y-97359580D02*
X208571428Y-97407200D01*
X208571428Y-97407200D02*
X208476190Y-97454819D01*
X208476190Y-97454819D02*
X208190476Y-97454819D01*
X208190476Y-97454819D02*
X208095238Y-97407200D01*
X208095238Y-97407200D02*
X208047619Y-97359580D01*
X129666666Y-81454819D02*
X129666666Y-82169104D01*
X129666666Y-82169104D02*
X129619047Y-82311961D01*
X129619047Y-82311961D02*
X129523809Y-82407200D01*
X129523809Y-82407200D02*
X129380952Y-82454819D01*
X129380952Y-82454819D02*
X129285714Y-82454819D01*
X130619047Y-81454819D02*
X130142857Y-81454819D01*
X130142857Y-81454819D02*
X130095238Y-81931009D01*
X130095238Y-81931009D02*
X130142857Y-81883390D01*
X130142857Y-81883390D02*
X130238095Y-81835771D01*
X130238095Y-81835771D02*
X130476190Y-81835771D01*
X130476190Y-81835771D02*
X130571428Y-81883390D01*
X130571428Y-81883390D02*
X130619047Y-81931009D01*
X130619047Y-81931009D02*
X130666666Y-82026247D01*
X130666666Y-82026247D02*
X130666666Y-82264342D01*
X130666666Y-82264342D02*
X130619047Y-82359580D01*
X130619047Y-82359580D02*
X130571428Y-82407200D01*
X130571428Y-82407200D02*
X130476190Y-82454819D01*
X130476190Y-82454819D02*
X130238095Y-82454819D01*
X130238095Y-82454819D02*
X130142857Y-82407200D01*
X130142857Y-82407200D02*
X130095238Y-82359580D01*
X129666666Y-111454819D02*
X129666666Y-112169104D01*
X129666666Y-112169104D02*
X129619047Y-112311961D01*
X129619047Y-112311961D02*
X129523809Y-112407200D01*
X129523809Y-112407200D02*
X129380952Y-112454819D01*
X129380952Y-112454819D02*
X129285714Y-112454819D01*
X130285714Y-111883390D02*
X130190476Y-111835771D01*
X130190476Y-111835771D02*
X130142857Y-111788152D01*
X130142857Y-111788152D02*
X130095238Y-111692914D01*
X130095238Y-111692914D02*
X130095238Y-111645295D01*
X130095238Y-111645295D02*
X130142857Y-111550057D01*
X130142857Y-111550057D02*
X130190476Y-111502438D01*
X130190476Y-111502438D02*
X130285714Y-111454819D01*
X130285714Y-111454819D02*
X130476190Y-111454819D01*
X130476190Y-111454819D02*
X130571428Y-111502438D01*
X130571428Y-111502438D02*
X130619047Y-111550057D01*
X130619047Y-111550057D02*
X130666666Y-111645295D01*
X130666666Y-111645295D02*
X130666666Y-111692914D01*
X130666666Y-111692914D02*
X130619047Y-111788152D01*
X130619047Y-111788152D02*
X130571428Y-111835771D01*
X130571428Y-111835771D02*
X130476190Y-111883390D01*
X130476190Y-111883390D02*
X130285714Y-111883390D01*
X130285714Y-111883390D02*
X130190476Y-111931009D01*
X130190476Y-111931009D02*
X130142857Y-111978628D01*
X130142857Y-111978628D02*
X130095238Y-112073866D01*
X130095238Y-112073866D02*
X130095238Y-112264342D01*
X130095238Y-112264342D02*
X130142857Y-112359580D01*
X130142857Y-112359580D02*
X130190476Y-112407200D01*
X130190476Y-112407200D02*
X130285714Y-112454819D01*
X130285714Y-112454819D02*
X130476190Y-112454819D01*
X130476190Y-112454819D02*
X130571428Y-112407200D01*
X130571428Y-112407200D02*
X130619047Y-112359580D01*
X130619047Y-112359580D02*
X130666666Y-112264342D01*
X130666666Y-112264342D02*
X130666666Y-112073866D01*
X130666666Y-112073866D02*
X130619047Y-111978628D01*
X130619047Y-111978628D02*
X130571428Y-111931009D01*
X130571428Y-111931009D02*
X130476190Y-111883390D01*
X129666666Y-96454819D02*
X129666666Y-97169104D01*
X129666666Y-97169104D02*
X129619047Y-97311961D01*
X129619047Y-97311961D02*
X129523809Y-97407200D01*
X129523809Y-97407200D02*
X129380952Y-97454819D01*
X129380952Y-97454819D02*
X129285714Y-97454819D01*
X130095238Y-96550057D02*
X130142857Y-96502438D01*
X130142857Y-96502438D02*
X130238095Y-96454819D01*
X130238095Y-96454819D02*
X130476190Y-96454819D01*
X130476190Y-96454819D02*
X130571428Y-96502438D01*
X130571428Y-96502438D02*
X130619047Y-96550057D01*
X130619047Y-96550057D02*
X130666666Y-96645295D01*
X130666666Y-96645295D02*
X130666666Y-96740533D01*
X130666666Y-96740533D02*
X130619047Y-96883390D01*
X130619047Y-96883390D02*
X130047619Y-97454819D01*
X130047619Y-97454819D02*
X130666666Y-97454819D01*
%TO.C,J7*%
D13*
X210770000Y-66370000D02*
X212150000Y-66370000D01*
X210770000Y-67750000D02*
X210770000Y-66370000D01*
X210770000Y-69020000D02*
X210770000Y-69130000D01*
X210770000Y-69020000D02*
X213530000Y-69020000D01*
X210770000Y-69130000D02*
X213530000Y-69130000D01*
X213530000Y-69020000D02*
X213530000Y-69130000D01*
%TO.C,J1*%
X210770000Y-112090000D02*
X212150000Y-112090000D01*
X210770000Y-113470000D02*
X210770000Y-112090000D01*
X210770000Y-114740000D02*
X210770000Y-114850000D01*
X210770000Y-114740000D02*
X213530000Y-114740000D01*
X210770000Y-114850000D02*
X213530000Y-114850000D01*
X213530000Y-114740000D02*
X213530000Y-114850000D01*
%TO.C,U2*%
X166915000Y-67270000D02*
X172435000Y-67270000D01*
X166915000Y-67540000D02*
X166915000Y-67270000D01*
X166915000Y-72790000D02*
X166915000Y-72520000D01*
X172435000Y-67270000D02*
X172435000Y-67540000D01*
X172435000Y-72520000D02*
X172435000Y-72790000D01*
X172435000Y-72790000D02*
X166915000Y-72790000D01*
X166085000Y-67530000D02*
X165745000Y-67060000D01*
X166425000Y-67060000D01*
X166085000Y-67530000D01*
G36*
X166085000Y-67530000D02*
G01*
X165745000Y-67060000D01*
X166425000Y-67060000D01*
X166085000Y-67530000D01*
G37*
%TO.C,J6*%
X124570000Y-66370000D02*
X125950000Y-66370000D01*
X124570000Y-67750000D02*
X124570000Y-66370000D01*
X124570000Y-69020000D02*
X124570000Y-69130000D01*
X124570000Y-69020000D02*
X127330000Y-69020000D01*
X124570000Y-69130000D02*
X127330000Y-69130000D01*
X127330000Y-69020000D02*
X127330000Y-69130000D01*
%TO.C,J4*%
X210770000Y-81610000D02*
X212150000Y-81610000D01*
X210770000Y-82990000D02*
X210770000Y-81610000D01*
X210770000Y-84260000D02*
X210770000Y-84370000D01*
X210770000Y-84260000D02*
X213530000Y-84260000D01*
X210770000Y-84370000D02*
X213530000Y-84370000D01*
X213530000Y-84260000D02*
X213530000Y-84370000D01*
%TO.C,J3*%
X210770000Y-96850000D02*
X212150000Y-96850000D01*
X210770000Y-98230000D02*
X210770000Y-96850000D01*
X210770000Y-99500000D02*
X210770000Y-99610000D01*
X210770000Y-99500000D02*
X213530000Y-99500000D01*
X210770000Y-99610000D02*
X213530000Y-99610000D01*
X213530000Y-99500000D02*
X213530000Y-99610000D01*
%TO.C,J5*%
X124570000Y-81610000D02*
X125950000Y-81610000D01*
X124570000Y-82990000D02*
X124570000Y-81610000D01*
X124570000Y-84260000D02*
X124570000Y-84370000D01*
X124570000Y-84260000D02*
X127330000Y-84260000D01*
X124570000Y-84370000D02*
X127330000Y-84370000D01*
X127330000Y-84260000D02*
X127330000Y-84370000D01*
%TO.C,J8*%
X124570000Y-112090000D02*
X125950000Y-112090000D01*
X124570000Y-113470000D02*
X124570000Y-112090000D01*
X124570000Y-114740000D02*
X124570000Y-114850000D01*
X124570000Y-114740000D02*
X127330000Y-114740000D01*
X124570000Y-114850000D02*
X127330000Y-114850000D01*
X127330000Y-114740000D02*
X127330000Y-114850000D01*
%TO.C,J2*%
X124570000Y-96850000D02*
X125950000Y-96850000D01*
X124570000Y-98230000D02*
X124570000Y-96850000D01*
X124570000Y-99500000D02*
X124570000Y-99610000D01*
X124570000Y-99500000D02*
X127330000Y-99500000D01*
X124570000Y-99610000D02*
X127330000Y-99610000D01*
X127330000Y-99500000D02*
X127330000Y-99610000D01*
%TD*%
M02*
